<svg xmlns="http://www.w3.org/2000/svg" width="1600" height="960" viewBox="0 0 1600 960">
  <defs>
    <linearGradient id="canvas" x2="0" y2="1"><stop stop-color="#F6F2F7"/><stop offset="1" stop-color="#E7DDE9"/></linearGradient>
    <linearGradient id="screen" x2="1" y2="1"><stop stop-color="#100B1E"/><stop offset=".55" stop-color="#1B1031"/><stop offset="1" stop-color="#260E2A"/></linearGradient>
    <linearGradient id="map" x2="1" y2="1"><stop stop-color="#17283B"/><stop offset="1" stop-color="#11192A"/></linearGradient>
    <linearGradient id="ruby" x2="1" y2="1"><stop stop-color="#FF9AA8"/><stop offset=".45" stop-color="#EF3452"/><stop offset="1" stop-color="#AE1538"/></linearGradient>
    <linearGradient id="hud" x2="1" y2="1"><stop stop-color="#351050"/><stop offset="1" stop-color="#741942"/></linearGradient>
    <filter id="shadow"><feDropShadow dx="0" dy="16" stdDeviation="18" flood-color="#2A1433" flood-opacity=".25"/></filter>
  </defs>
  <rect width="1600" height="960" fill="url(#canvas)"/>
  <text x="800" y="68" text-anchor="middle" font-family="Arial" font-weight="800" font-size="28" fill="#261C2C">RUBY QUEST · REFINED UI DIRECTION</text>
  <text x="800" y="105" text-anchor="middle" font-family="Arial" font-size="17" fill="#77657D">Clean game systems, restrained animation and map-first discovery</text>
  <!-- first open -->
  <g filter="url(#shadow)"><rect x="156" y="150" width="510" height="744" rx="48" fill="#171219"/><rect x="170" y="164" width="482" height="716" rx="37" fill="url(#screen)"/></g><rect x="347" y="175" width="128" height="25" rx="13" fill="#171219"/>
  <g opacity=".34" stroke="#D4C3D8" stroke-width="1"><path d="M170 270h482M170 375h482M170 480h482M170 585h482M170 690h482M170 795h482"/><path d="M235 164v716M318 164v716M401 164v716M484 164v716M567 164v716"/></g><path d="M137 438c153-94 284 104 467-35" fill="none" stroke="#FB7B89" stroke-opacity=".18" stroke-width="1.5"/><path d="M294 580c111-80 200 48 340-35" fill="none" stroke="#F9DFE2" stroke-opacity=".12" stroke-width="1.5"/>
  <text x="198" y="231" font-family="Arial" font-size="10" font-weight="800" letter-spacing="1.3" fill="#D8C6DE">RUBY+ / QUEST MODE</text><circle cx="576" cy="226" r="4" fill="#62D39A"/><text x="588" y="231" font-family="Arial" font-size="10" font-weight="800" letter-spacing="1" fill="#A4E7BF">LIVE</text><path d="M194 246h434" stroke="#FFFFFF2B"/>
  <circle cx="411" cy="390" r="112" fill="none" stroke="#FF7F8F55"/><circle cx="411" cy="390" r="82" fill="#EF345217" stroke="#FFD5D829"/>
  <g transform="translate(411 390)"><path d="M0-56 44-21 0 59-44-21 0-56Z" fill="url(#ruby)" stroke="#FFD5D8" stroke-width="3"/><path d="m-44-21 44 17 44-17L0 59-44-21Z" fill="#C81F41"/><path d="m0-56 20 35L0-4-20-21 0-56Z" fill="#FF9AA8"/><path d="m-44-21 24-17L0-4-44-21Z" fill="#E92C4B"/><path d="m44-21-24-17L0-4l44-17Z" fill="#AE1538"/><path d="m-20-38 20-18v52l-20-17Z" fill="#FFB5BE" opacity=".74"/></g>
  <rect x="343" y="494" width="136" height="28" rx="4" fill="#09051188" stroke="#FFFFFF22"/><circle cx="359" cy="508" r="4" fill="#EF3452"/><text x="371" y="512" font-family="Arial" font-size="10" font-weight="800" letter-spacing="1" fill="#F1DCE0">REWARD DROP</text>
  <text x="198" y="572" font-family="Arial" font-size="11" font-weight="800" letter-spacing="1.2" fill="#FB7B89">WELCOME TO RUBY QUEST</text><text x="198" y="617" font-family="Arial" font-size="34" font-weight="800" fill="white">Explore your city.</text><text x="198" y="656" font-family="Arial" font-size="34" font-weight="800" fill="white">Collect the reward.</text><text x="198" y="688" font-family="Arial" font-size="14" fill="#C6BACA">Rubies appear at participating places near you.</text><path d="M198 716h426" stroke="#FFFFFF22"/>
  <g font-family="Arial"><text x="198" y="747" font-size="10" font-weight="800" fill="#807089">01</text><rect x="232" y="727" width="27" height="27" rx="6" fill="#EF345222"/><text x="240" y="747" font-size="16" fill="#FB7B89">⌖</text><text x="277" y="747" font-size="14" font-weight="600" fill="#F1EBF3">Discover a nearby ruby</text><path d="M198 767h426" stroke="#FFFFFF22"/><text x="198" y="796" font-size="10" font-weight="800" fill="#807089">02</text><rect x="232" y="776" width="27" height="27" rx="6" fill="#EF345222"/><text x="240" y="796" font-size="16" fill="#FB7B89">➤</text><text x="277" y="796" font-size="14" font-weight="600" fill="#F1EBF3">Visit the partner location</text></g>
  <rect x="198" y="826" width="426" height="54" rx="10" fill="#D52D4B"/><text x="399" y="860" text-anchor="middle" font-family="Arial" font-size="16" font-weight="800" fill="white">Enter Quest  →</text>
  <!-- game map -->
  <g filter="url(#shadow)"><rect x="932" y="150" width="510" height="744" rx="48" fill="#171219"/><rect x="946" y="164" width="482" height="716" rx="37" fill="url(#map)"/></g><rect x="1123" y="175" width="128" height="25" rx="13" fill="#171219"/>
  <g fill="none" stroke="#7892A2" stroke-opacity=".45" stroke-width="4"><path d="M946 335c111-74 169 77 279 10s106-66 203-10"/><path d="M946 514c89-62 154 51 239-5s142-99 243-25"/><path d="M1030 164c8 128 123 108 148 234s-36 183 26 305"/><path d="M1353 164c-87 132-5 203-62 305s33 136 88 247"/></g><g fill="#3C5567" fill-opacity=".58"><path d="M946 656l89-45 91 40 83-72 100 45 119-65v321H946z"/></g>
  <rect x="967" y="214" width="208" height="63" rx="18" fill="url(#hud)" stroke="#FFFFFF44"/><rect x="981" y="231" width="31" height="31" rx="10" fill="#FFE28C2B" stroke="#FFE28CA8"/><path d="M997 237l8 6-8 14-8-14 8-6Z" fill="#EF3452" stroke="#FFD5D8"/><text x="1022" y="240" font-family="Arial" font-size="12" font-weight="800" letter-spacing="1.2" fill="white">RUBY QUEST</text><text x="1022" y="258" font-family="Arial" font-size="11" font-weight="600" fill="#FFFFFFB9">Lagos</text>
  <rect x="1064" y="293" width="248" height="55" rx="16" fill="#190728E5" stroke="#FFE28C66"/><circle cx="1092" cy="320" r="14" fill="#FFE28C22"/><text x="1092" y="326" text-anchor="middle" font-family="Arial" font-size="16" fill="#FFE28C">◎</text><text x="1117" y="314" font-family="Arial" font-size="10" font-weight="800" letter-spacing="1" fill="#FFE28C">TODAY'S HUNT</text><text x="1117" y="333" font-family="Arial" font-size="13" font-weight="700" fill="white">4 rubies are waiting nearby</text>
  <g><circle cx="1084" cy="470" r="33" fill="#EF34523A"/><path d="M1084 445l18 15-18 32-18-32 18-15Z" fill="#EF3452" stroke="white" stroke-width="2.5"/><rect x="1048" y="500" width="72" height="19" rx="9" fill="white"/><text x="1084" y="513" text-anchor="middle" font-family="Arial" font-size="9" font-weight="800" fill="#C32234">COMMON</text></g>
  <g><circle cx="1274" cy="551" r="38" fill="#FFD65A2D" stroke="#FFE28C66"/><path d="M1274 523l21 17-21 37-21-37 21-17Z" fill="#F03E8A" stroke="#FFE28C" stroke-width="3"/><rect x="1231" y="584" width="86" height="20" rx="10" fill="#FFF1C8"/><text x="1274" y="598" text-anchor="middle" font-family="Arial" font-size="9" font-weight="800" fill="#A51956">LEGENDARY</text></g>
  <g><circle cx="1022" cy="671" r="28" fill="#8B5CF64B"/><path d="M1022 649l16 13-16 28-16-28 16-13Z" fill="#7952D6" stroke="white" stroke-width="2.5"/></g>
  <circle cx="1384" cy="746" r="27" fill="#FFF5D5"/><text x="1384" y="754" text-anchor="middle" font-family="Arial" font-size="25" fill="#D52D4B">⌖</text><circle cx="1384" cy="680" r="27" fill="#270A36E8" stroke="#FFFFFF44"/><text x="1384" y="688" text-anchor="middle" font-family="Arial" font-size="21" fill="#FFE28C">♛</text>
  <text x="411" y="934" text-anchor="middle" font-family="Arial" font-size="17" font-weight="800" fill="#43254B">FIRST-OPEN EXPERIENCE</text><text x="1187" y="934" text-anchor="middle" font-family="Arial" font-size="17" font-weight="800" fill="#43254B">FULL-SCREEN GAME MAP</text>
</svg>
